REM DIRINDEX 1\2,1\3
REM DIRNAME folder01,folder02,folder03
TITLE ""
FILE "54.mp3" MP3
  TRACK 01 AUDIO
    TITLE "0:"
    INDEX 01 00:00:00
  TRACK 02 AUDIO
    TITLE "3:cjc132_0989"
    INDEX 01 00:00:15
  TRACK 03 AUDIO
    TITLE "0:"
    INDEX 01 00:01:36
  TRACK 04 AUDIO
    TITLE "2:cjc132_0990"
    INDEX 01 00:02:10
  TRACK 05 AUDIO
    TITLE "0:"
    INDEX 01 00:03:55
  TRACK 06 AUDIO
    TITLE "2:cjc132_0991"
    INDEX 01 00:04:31
  TRACK 07 AUDIO
    TITLE "0:"
    INDEX 01 00:06:04
  TRACK 08 AUDIO
    TITLE "2:cjc132_0992"
    INDEX 01 00:06:53
  TRACK 09 AUDIO
    TITLE "0:"
    INDEX 01 00:08:34
  TRACK 10 AUDIO
    TITLE "2:cjc132_0993"
    INDEX 01 00:09:40
  TRACK 11 AUDIO
    TITLE "0:"
    INDEX 01 00:11:19
  TRACK 12 AUDIO
    TITLE "2:cjc132_0994"
    INDEX 01 00:13:18
  TRACK 13 AUDIO
    TITLE "0:"
    INDEX 01 00:14:72
  TRACK 14 AUDIO
    TITLE "2:cjc132_0995"
    INDEX 01 00:16:67
  TRACK 15 AUDIO
    TITLE "0:"
    INDEX 01 00:18:62
  TRACK 16 AUDIO
    TITLE "2:cjc132_0996"
    INDEX 01 00:21:06
  TRACK 17 AUDIO
    TITLE "0:"
    INDEX 01 00:22:30
  TRACK 18 AUDIO
    TITLE "2:cjc132_0997"
    INDEX 01 00:24:02
  TRACK 19 AUDIO
    TITLE "0:"
    INDEX 01 00:25:62
  TRACK 20 AUDIO
    TITLE "2:cjc132_0998"
    INDEX 01 00:27:69
  TRACK 21 AUDIO
    TITLE "0:"
    INDEX 01 00:29:56
  TRACK 22 AUDIO
    TITLE "2:cjc132_0999"
    INDEX 01 00:31:67
  TRACK 23 AUDIO
    TITLE "0:"
    INDEX 01 00:33:58
  TRACK 24 AUDIO
    TITLE "2:cjc132_1000"
    INDEX 01 00:36:01
  TRACK 25 AUDIO
    TITLE "0:"
    INDEX 01 00:38:30
  TRACK 26 AUDIO
    TITLE "2:cjc132_1001"
    INDEX 01 00:41:04
  TRACK 27 AUDIO
    TITLE "0:"
    INDEX 01 00:42:61
  TRACK 28 AUDIO
    TITLE "2:cjc132_1002"
    INDEX 01 00:44:65
  TRACK 29 AUDIO
    TITLE "0:"
    INDEX 01 00:46:23
  TRACK 30 AUDIO
    TITLE "2:cjc132_1003"
    INDEX 01 00:47:74
  TRACK 31 AUDIO
    TITLE "0:"
    INDEX 01 00:49:49
  TRACK 32 AUDIO
    TITLE "2:cjc132_1004"
    INDEX 01 00:51:52
  TRACK 33 AUDIO
    TITLE "0:"
    INDEX 01 00:53:64
  TRACK 34 AUDIO
    TITLE "2:cjc132_1005"
    INDEX 01 00:56:24
  TRACK 35 AUDIO
    TITLE "0:"
    INDEX 01 00:58:11
  TRACK 36 AUDIO
    TITLE "2:cjc132_1006"
    INDEX 01 01:00:21
  TRACK 37 AUDIO
    TITLE "0:"
    INDEX 01 01:02:30
  TRACK 38 AUDIO
    TITLE "2:cjc132_1007"
    INDEX 01 01:04:62
  TRACK 39 AUDIO
    TITLE "0:"
    INDEX 01 01:06:69
  TRACK 40 AUDIO
    TITLE "2:cjc132_1008"
    INDEX 01 01:09:24
  TRACK 41 AUDIO
    TITLE "0:"
    INDEX 01 01:11:21
  TRACK 42 AUDIO
    TITLE "2:cjc132_1009"
    INDEX 01 01:13:38
  TRACK 43 AUDIO
    TITLE "0:"
    INDEX 01 01:15:42
  TRACK 44 AUDIO
    TITLE "2:cjc132_1010"
    INDEX 01 01:17:61
  TRACK 45 AUDIO
    TITLE "0:"
    INDEX 01 01:19:32
  TRACK 46 AUDIO
    TITLE "2:cjc132_1011"
    INDEX 01 01:21:23
  TRACK 47 AUDIO
    TITLE "0:"
    INDEX 01 01:23:40
  TRACK 48 AUDIO
    TITLE "2:cjc132_1012"
    INDEX 01 01:25:72
  TRACK 49 AUDIO
    TITLE "0:"
    INDEX 01 01:27:32
  TRACK 50 AUDIO
    TITLE "2:cjc132_1013"
    INDEX 01 01:29:17
  TRACK 51 AUDIO
    TITLE "0:"
    INDEX 01 01:30:73
  TRACK 52 AUDIO
    TITLE "2:cjc132_1014"
    INDEX 01 01:32:74
  TRACK 53 AUDIO
    TITLE "0:"
    INDEX 01 01:34:38
  TRACK 54 AUDIO
    TITLE "2:cjc132_1015"
    INDEX 01 01:36:27
  TRACK 55 AUDIO
    TITLE "0:"
    INDEX 01 01:38:43
  TRACK 56 AUDIO
    TITLE "2:cjc132_1016"
    INDEX 01 01:41:07
  TRACK 57 AUDIO
    TITLE "0:"
    INDEX 01 01:43:21
  TRACK 58 AUDIO
    TITLE "2:cjc132_1017"
    INDEX 01 01:45:59
  TRACK 59 AUDIO
    TITLE "0:"
    INDEX 01 01:47:35
  TRACK 60 AUDIO
    TITLE "2:cjc132_1018"
    INDEX 01 01:49:35
  TRACK 61 AUDIO
    TITLE "0:"
    INDEX 01 01:51:68
  TRACK 62 AUDIO
    TITLE "2:cjc132_1019"
    INDEX 01 01:54:42
  TRACK 63 AUDIO
    TITLE "0:"
    INDEX 01 01:56:32
  TRACK 64 AUDIO
    TITLE "2:cjc132_1020"
    INDEX 01 01:58:40
  TRACK 65 AUDIO
    TITLE "0:"
    INDEX 01 02:00:12
  TRACK 66 AUDIO
    TITLE "2:cjc132_1021"
    INDEX 01 02:02:07
  TRACK 67 AUDIO
    TITLE "0:"
    INDEX 01 02:03:43
  TRACK 68 AUDIO
    TITLE "2:cjc132_1022"
    INDEX 01 02:05:27
  TRACK 69 AUDIO
    TITLE "0:"
    INDEX 01 02:06:65
  TRACK 70 AUDIO
    TITLE "2:cjc132_1023"
    INDEX 01 02:08:50
  TRACK 71 AUDIO
    TITLE "0:"
    INDEX 01 02:10:30
  TRACK 72 AUDIO
    TITLE "2:cjc132_1024"
    INDEX 01 02:12:35
  TRACK 73 AUDIO
    TITLE "0:"
    INDEX 01 02:14:04
  TRACK 74 AUDIO
    TITLE "2:cjc132_1025"
    INDEX 01 02:15:72
  TRACK 75 AUDIO
    TITLE "0:"
    INDEX 01 02:17:65
  TRACK 76 AUDIO
    TITLE "2:cjc132_1026"
    INDEX 01 02:20:01
  TRACK 77 AUDIO
    TITLE "0:"
    INDEX 01 02:22:11
  TRACK 78 AUDIO
    TITLE "2:cjc132_1027"
    INDEX 01 02:24:40
  TRACK 79 AUDIO
    TITLE "0:"
    INDEX 01 02:26:42
  TRACK 80 AUDIO
    TITLE "2:cjc132_1028"
    INDEX 01 02:28:65
  TRACK 81 AUDIO
    TITLE "0:"
    INDEX 01 02:30:34
  TRACK 82 AUDIO
    TITLE "2:cjc132_1029"
    INDEX 01 02:32:24
  TRACK 83 AUDIO
    TITLE "0:"
    INDEX 01 02:34:03
  TRACK 84 AUDIO
    TITLE "2:cjc132_1030"
    INDEX 01 02:36:06
  TRACK 85 AUDIO
    TITLE "0:"
    INDEX 01 02:38:28
  TRACK 86 AUDIO
    TITLE "2:cjc132_1031"
    INDEX 01 02:40:72
  TRACK 87 AUDIO
    TITLE "0:"
    INDEX 01 02:42:45
  TRACK 88 AUDIO
    TITLE "2:cjc132_1032"
    INDEX 01 02:44:42
  TRACK 89 AUDIO
    TITLE "0:"
    INDEX 01 02:46:06
  TRACK 90 AUDIO
    TITLE "2:cjc132_1033"
    INDEX 01 02:47:66
  TRACK 91 AUDIO
    TITLE "0:"
    INDEX 01 02:50:18
  TRACK 92 AUDIO
    TITLE "2:cjc132_1034"
    INDEX 01 02:52:63
  TRACK 93 AUDIO
    TITLE "0:"
    INDEX 01 02:54:68
  TRACK 94 AUDIO
    TITLE "2:cjc132_1035"
    INDEX 01 02:57:20
  TRACK 95 AUDIO
    TITLE "0:"
    INDEX 01 02:59:16
  TRACK 96 AUDIO
    TITLE "2:cjc132_1036"
    INDEX 01 03:01:37
  TRACK 97 AUDIO
    TITLE "0:"
    INDEX 01 03:03:67
  TRACK 98 AUDIO
    TITLE "2:cjc132_1037"
    INDEX 01 03:06:44
  TRACK 99 AUDIO
    TITLE "0:"
    INDEX 01 03:08:37
  TRACK 100 AUDIO
    TITLE "2:cjc132_1038"
    INDEX 01 03:10:46
  TRACK 101 AUDIO
    TITLE "0:"
    INDEX 01 03:12:25
  TRACK 102 AUDIO
    TITLE "2:cjc132_1039"
    INDEX 01 03:14:24
  TRACK 103 AUDIO
    TITLE "0:"
    INDEX 01 03:16:31
  TRACK 104 AUDIO
    TITLE "2:cjc132_1040"
    INDEX 01 03:18:61
  TRACK 105 AUDIO
    TITLE "0:"
    INDEX 01 03:20:68
  TRACK 106 AUDIO
    TITLE "2:cjc132_1041"
    INDEX 01 03:23:25
  TRACK 107 AUDIO
    TITLE "0:"
    INDEX 01 03:25:10
  TRACK 108 AUDIO
    TITLE "2:cjc132_1042"
    INDEX 01 03:27:17
  TRACK 109 AUDIO
    TITLE "0:"
    INDEX 01 03:29:27
  TRACK 110 AUDIO
    TITLE "2:cjc132_1043"
    INDEX 01 03:31:62
  TRACK 111 AUDIO
    TITLE "0:"
    INDEX 01 03:33:57
  TRACK 112 AUDIO
    TITLE "2:cjc132_1044"
    INDEX 01 03:35:71
  TRACK 113 AUDIO
    TITLE "0:"
    INDEX 01 03:37:68
  TRACK 114 AUDIO
    TITLE "2:cjc132_1045"
    INDEX 01 03:40:10
  TRACK 115 AUDIO
    TITLE "0:"
    INDEX 01 03:41:60
  TRACK 116 AUDIO
    TITLE "2:cjc132_1046"
    INDEX 01 03:43:57
  TRACK 117 AUDIO
    TITLE "0:"
    INDEX 01 03:45:44
  TRACK 118 AUDIO
    TITLE "2:cjc132_1047"
    INDEX 01 03:47:55
  TRACK 119 AUDIO
    TITLE "0:"
    INDEX 01 03:49:24
  TRACK 120 AUDIO
    TITLE "2:cjc132_1048"
    INDEX 01 03:51:19
  TRACK 121 AUDIO
    TITLE "0:"
    INDEX 01 03:52:60
  TRACK 122 AUDIO
    TITLE "2:cjc132_1049"
    INDEX 01 03:54:51
  TRACK 123 AUDIO
    TITLE "0:"
    INDEX 01 03:56:67
  TRACK 124 AUDIO
    TITLE "2:cjc132_1050"
    INDEX 01 03:59:28
  TRACK 125 AUDIO
    TITLE "0:"
    INDEX 01 04:00:69
  TRACK 126 AUDIO
    TITLE "2:cjc132_1051"
    INDEX 01 04:02:56
  TRACK 127 AUDIO
    TITLE "0:"
    INDEX 01 04:04:16
  TRACK 128 AUDIO
    TITLE "2:cjc132_1052"
    INDEX 01 04:05:74
  TRACK 129 AUDIO
    TITLE "0:"
    INDEX 01 04:07:46
  TRACK 130 AUDIO
    TITLE "2:cjc132_1053"
    INDEX 01 04:09:45
  TRACK 131 AUDIO
    TITLE "0:"
    INDEX 01 04:11:08
  TRACK 132 AUDIO
    TITLE "2:cjc132_1054"
    INDEX 01 04:12:72
  TRACK 133 AUDIO
    TITLE "0:"
    INDEX 01 04:14:36
  TRACK 134 AUDIO
    TITLE "2:cjc132_1055"
    INDEX 01 04:16:23
  TRACK 135 AUDIO
    TITLE "0:"
    INDEX 01 04:18:24
